<?xml version="1.0" encoding="utf-8" ?>
<svg baseProfile="tiny" height="100%" version="1.2" width="100%" xmlns="http://www.w3.org/2000/svg" xmlns:ev="http://www.w3.org/2001/xml-events" xmlns:xlink="http://www.w3.org/1999/xlink"><defs /><path d="M 145,127 L 145,140 L 158,140 L 160,138 L 160,130 L 159,129 L 159,128 L 158,128 L 157,127 Z" fill="black" stroke="none" /><path d="M 129,127 L 129,140 L 139,140 L 139,138 L 133,138 L 132,137 L 132,135 L 133,134 L 139,134 L 139,132 L 133,132 L 132,131 L 132,130 L 133,129 L 139,129 L 139,127 Z" fill="black" stroke="none" /><path d="M 120,127 L 120,140 L 123,140 L 123,127 Z" fill="black" stroke="none" /><path d="M 105,127 L 105,140 L 108,140 L 108,136 L 109,135 L 115,135 L 115,133 L 109,133 L 108,132 L 108,130 L 109,129 L 115,129 L 116,128 L 116,127 Z" fill="black" stroke="none" /><path d="M 97,127 L 97,140 L 100,140 L 100,127 Z" fill="black" stroke="none" /><path d="M 82,127 L 82,129 L 85,129 L 86,130 L 86,140 L 89,140 L 89,130 L 90,129 L 93,129 L 93,127 Z" fill="black" stroke="none" /><path d="M 65,127 L 65,140 L 67,140 L 67,131 L 69,129 L 74,129 L 76,131 L 75,132 L 75,133 L 74,134 L 71,134 L 72,135 L 72,136 L 73,137 L 73,138 L 75,140 L 78,140 L 77,139 L 77,138 L 76,137 L 76,136 L 79,133 L 79,129 L 77,127 Z" fill="black" stroke="none" /><path d="M 49,127 L 49,140 L 59,140 L 59,138 L 53,138 L 52,137 L 52,135 L 53,134 L 59,134 L 59,132 L 53,132 L 52,131 L 52,130 L 53,129 L 59,129 L 59,127 Z" fill="black" stroke="none" /><path d="M 35,127 L 33,129 L 33,138 L 35,140 L 44,140 L 44,138 L 38,138 L 36,136 L 36,130 L 37,129 L 44,129 L 44,127 Z" fill="black" stroke="none" /><path d="M 130,108 L 130,120 L 159,120 L 159,108 Z" fill="black" stroke="none" /><path d="M 130,86 L 130,98 L 159,98 L 159,86 Z" fill="black" stroke="none" /><path d="M 98,64 L 97,65 L 95,65 L 94,66 L 93,66 L 91,68 L 90,68 L 88,70 L 88,71 L 86,73 L 86,74 L 85,75 L 85,86 L 86,87 L 86,89 L 88,91 L 88,92 L 91,95 L 92,95 L 94,97 L 97,97 L 98,98 L 106,98 L 109,101 L 109,102 L 110,103 L 109,104 L 109,105 L 107,107 L 105,107 L 104,108 L 84,108 L 84,120 L 112,120 L 113,119 L 115,119 L 117,117 L 118,117 L 121,114 L 121,113 L 122,112 L 122,111 L 123,110 L 123,108 L 124,107 L 124,101 L 123,100 L 123,97 L 122,96 L 122,95 L 121,94 L 121,93 L 117,89 L 116,89 L 115,88 L 113,88 L 112,87 L 109,87 L 108,86 L 104,86 L 103,85 L 102,85 L 99,82 L 99,79 L 100,78 L 101,78 L 102,77 L 103,77 L 104,76 L 158,76 L 159,75 L 159,65 L 158,64 Z" fill="black" stroke="none" /><path d="M 53,64 L 52,65 L 52,66 L 51,67 L 51,69 L 50,70 L 50,71 L 49,72 L 49,73 L 48,74 L 48,75 L 47,76 L 47,77 L 46,78 L 46,79 L 45,80 L 45,81 L 44,82 L 44,83 L 43,84 L 43,85 L 42,86 L 42,87 L 41,88 L 41,89 L 40,90 L 40,91 L 39,92 L 39,93 L 38,94 L 38,95 L 37,96 L 37,97 L 36,98 L 36,99 L 35,100 L 35,101 L 34,102 L 34,103 L 33,104 L 33,105 L 32,106 L 32,107 L 31,108 L 31,109 L 30,110 L 30,111 L 29,112 L 29,113 L 28,114 L 28,115 L 27,116 L 27,117 L 26,118 L 26,119 L 25,120 L 25,121 L 41,121 L 42,120 L 42,119 L 43,118 L 43,117 L 44,116 L 44,115 L 45,114 L 45,113 L 46,112 L 46,111 L 47,110 L 47,109 L 48,108 L 48,107 L 49,106 L 64,106 L 65,107 L 65,121 L 78,121 L 78,64 Z" fill="black" stroke="none" /><path d="M 105,0 L 106,1 L 106,4 L 107,5 L 107,7 L 108,8 L 108,10 L 109,11 L 109,13 L 110,14 L 110,16 L 111,17 L 111,19 L 113,17 L 113,16 L 116,13 L 116,12 L 119,9 L 119,8 L 122,5 L 122,4 L 123,3 L 124,3 L 125,4 L 127,4 L 128,5 L 130,5 L 131,6 L 133,6 L 134,7 L 134,27 L 135,27 L 137,25 L 138,25 L 140,23 L 141,23 L 144,20 L 145,20 L 147,18 L 148,18 L 150,16 L 151,16 L 153,18 L 154,18 L 157,21 L 158,21 L 160,23 L 160,25 L 159,26 L 159,28 L 158,29 L 158,31 L 157,32 L 157,34 L 156,35 L 156,37 L 155,38 L 155,40 L 154,41 L 154,42 L 156,42 L 157,41 L 159,41 L 160,40 L 162,40 L 163,39 L 166,39 L 167,38 L 169,38 L 170,37 L 173,37 L 175,39 L 175,40 L 177,42 L 177,43 L 179,45 L 179,47 L 178,48 L 178,49 L 176,51 L 176,52 L 173,55 L 173,56 L 170,59 L 170,60 L 168,62 L 168,63 L 187,63 L 188,64 L 188,66 L 189,67 L 189,69 L 190,70 L 190,72 L 191,73 L 191,74 L 187,78 L 186,78 L 183,81 L 182,81 L 180,83 L 179,83 L 176,86 L 175,86 L 175,87 L 177,87 L 178,88 L 180,88 L 181,89 L 183,89 L 184,90 L 186,90 L 187,91 L 188,91 L 189,92 L 191,92 L 192,93 L 193,93 L 194,94 L 194,104 L 192,106 L 190,106 L 189,107 L 187,107 L 186,108 L 184,108 L 183,109 L 180,109 L 179,110 L 177,110 L 176,111 L 174,111 L 177,114 L 178,114 L 181,117 L 182,117 L 186,121 L 187,121 L 190,124 L 189,125 L 189,127 L 188,128 L 188,130 L 187,131 L 187,134 L 186,135 L 166,135 L 167,136 L 167,137 L 170,140 L 170,141 L 172,143 L 172,144 L 174,146 L 174,147 L 176,149 L 176,150 L 177,151 L 177,152 L 174,155 L 174,156 L 172,158 L 172,159 L 170,161 L 169,161 L 168,160 L 166,160 L 165,159 L 163,159 L 162,158 L 160,158 L 159,157 L 158,157 L 157,156 L 155,156 L 154,155 L 152,155 L 151,154 L 151,155 L 152,156 L 152,159 L 153,160 L 153,162 L 154,163 L 154,166 L 155,167 L 155,169 L 156,170 L 156,172 L 157,173 L 154,176 L 153,176 L 151,178 L 150,178 L 148,180 L 146,180 L 144,178 L 143,178 L 140,175 L 139,175 L 136,172 L 135,172 L 132,169 L 131,169 L 131,182 L 130,183 L 130,188 L 129,189 L 128,189 L 127,190 L 125,190 L 124,191 L 122,191 L 121,192 L 119,192 L 117,190 L 117,189 L 115,187 L 115,186 L 112,183 L 112,182 L 110,180 L 110,179 L 108,177 L 108,176 L 107,176 L 107,177 L 106,178 L 106,180 L 105,181 L 105,183 L 104,184 L 104,186 L 103,187 L 103,189 L 102,190 L 102,192 L 100,194 L 194,194 L 194,0 Z" fill="black" stroke="none" /><path d="M 0,0 L 0,194 L 89,194 L 88,193 L 88,191 L 87,190 L 87,188 L 86,187 L 86,185 L 85,184 L 85,182 L 84,181 L 84,178 L 83,177 L 83,175 L 80,178 L 80,179 L 77,182 L 77,183 L 73,187 L 73,188 L 70,191 L 69,190 L 67,190 L 66,189 L 64,189 L 63,188 L 61,188 L 59,186 L 59,167 L 58,168 L 57,168 L 55,170 L 54,170 L 51,173 L 50,173 L 48,175 L 47,175 L 45,177 L 44,177 L 43,178 L 41,176 L 40,176 L 38,174 L 37,174 L 34,171 L 34,168 L 35,167 L 35,165 L 36,164 L 36,162 L 37,161 L 37,159 L 38,158 L 38,156 L 39,155 L 39,153 L 40,152 L 38,152 L 37,153 L 34,153 L 33,154 L 31,154 L 30,155 L 28,155 L 27,156 L 24,156 L 23,157 L 21,157 L 19,155 L 19,154 L 16,151 L 16,150 L 14,148 L 14,147 L 17,144 L 17,143 L 20,140 L 20,139 L 22,137 L 22,136 L 25,133 L 25,132 L 26,131 L 7,131 L 6,130 L 6,129 L 5,128 L 5,126 L 4,125 L 4,123 L 3,122 L 3,119 L 4,118 L 5,118 L 8,115 L 9,115 L 12,112 L 13,112 L 15,110 L 16,110 L 19,107 L 17,107 L 16,106 L 14,106 L 13,105 L 11,105 L 10,104 L 8,104 L 7,103 L 6,103 L 5,102 L 3,102 L 2,101 L 1,101 L 0,100 L 0,90 L 2,88 L 4,88 L 5,87 L 7,87 L 8,86 L 10,86 L 11,85 L 13,85 L 14,84 L 16,84 L 17,83 L 19,83 L 19,82 L 18,81 L 17,81 L 13,77 L 12,77 L 9,74 L 8,74 L 4,70 L 4,69 L 5,68 L 5,66 L 6,65 L 6,62 L 7,61 L 7,60 L 8,59 L 28,59 L 26,57 L 26,56 L 24,54 L 24,53 L 21,50 L 21,49 L 19,47 L 19,46 L 17,44 L 17,42 L 18,41 L 18,40 L 21,37 L 21,36 L 24,33 L 25,33 L 26,34 L 28,34 L 29,35 L 31,35 L 32,36 L 33,36 L 34,37 L 36,37 L 37,38 L 39,38 L 40,39 L 43,39 L 42,38 L 42,36 L 41,35 L 41,33 L 40,32 L 40,29 L 39,28 L 39,26 L 38,25 L 38,23 L 37,22 L 37,21 L 41,17 L 42,17 L 45,14 L 48,14 L 51,17 L 52,17 L 55,20 L 56,20 L 58,22 L 59,22 L 62,25 L 63,25 L 63,6 L 64,5 L 66,5 L 67,4 L 69,4 L 70,3 L 72,3 L 73,2 L 75,2 L 76,3 L 76,4 L 78,6 L 78,7 L 81,10 L 81,11 L 83,13 L 83,14 L 86,17 L 86,18 L 87,18 L 87,16 L 88,15 L 88,13 L 89,12 L 89,10 L 90,9 L 90,7 L 91,6 L 91,4 L 92,3 L 92,1 L 93,0 Z" fill="black" stroke="none" /></svg>